<svg xmlns="http://www.w3.org/2000/svg" xmlns:xlink="http://www.w3.org/1999/xlink" width="500" zoomAndPan="magnify" viewBox="0 0 375 374.999991" height="500" preserveAspectRatio="xMidYMid meet" version="1.0"><defs><clipPath id="3207df93be"><path d="M 219 75 L 310.910156 75 L 310.910156 168 L 219 168 Z M 219 75 " clip-rule="nonzero"/></clipPath><clipPath id="1db7902190"><path d="M 75.410156 228 L 159 228 L 159 312 L 75.410156 312 Z M 75.410156 228 " clip-rule="nonzero"/></clipPath><clipPath id="bc4c0ac56d"><path d="M 75.410156 72.03125 L 309 72.03125 L 309 308 L 75.410156 308 Z M 75.410156 72.03125 " clip-rule="nonzero"/></clipPath></defs><g clip-path="url(#3207df93be)"><path fill="#d1470b" d="M 262.742188 154.398438 C 261.753906 155.394531 260.046875 155.292969 258.925781 154.171875 L 255.261719 150.480469 C 254.144531 149.355469 254.058594 147.632812 255.042969 146.636719 L 290.296875 111.171875 C 291.285156 110.175781 293 110.277344 294.109375 111.402344 L 297.773438 115.082031 C 298.890625 116.214844 298.996094 117.929688 298 118.929688 Z M 251.578125 143.140625 C 250.585938 144.144531 248.886719 144.039062 247.765625 142.914062 L 244.097656 139.230469 C 242.972656 138.105469 242.871094 136.382812 243.875 135.382812 L 279.125 99.921875 C 280.109375 98.921875 281.828125 99.023438 282.9375 100.148438 L 286.601562 103.832031 C 287.71875 104.957031 287.8125 106.679688 286.828125 107.683594 Z M 240.015625 131.507812 C 239.027344 132.5 237.308594 132.402344 236.195312 131.273438 L 232.539062 127.589844 C 231.425781 126.464844 231.320312 124.746094 232.316406 123.742188 L 267.570312 88.28125 C 268.550781 87.285156 270.265625 87.382812 271.382812 88.515625 L 275.046875 92.191406 C 276.164062 93.324219 276.257812 95.042969 275.277344 96.042969 Z M 309.886719 113.863281 L 272.609375 76.324219 C 271.613281 75.328125 270.003906 75.320312 269.019531 76.324219 L 220.4375 125.199219 C 219.441406 126.195312 219.441406 127.816406 220.4375 128.8125 L 236.765625 145.261719 C 236.765625 145.261719 240.023438 144.621094 241.210938 145.816406 C 242.390625 147.003906 241.378906 149.90625 241.378906 149.90625 L 257.707031 166.355469 C 258.695312 167.347656 260.3125 167.351562 261.289062 166.355469 L 309.886719 117.476562 C 310.875 116.476562 310.875 114.863281 309.886719 113.863281 " fill-opacity="1" fill-rule="nonzero"/></g><path fill="#d1470b" d="M 236.765625 145.261719 L 151.976562 230.554688 L 156.59375 235.199219 L 241.378906 149.90625 L 236.765625 145.261719 " fill-opacity="1" fill-rule="nonzero"/><path fill="#d1470b" d="M 241.210938 145.816406 C 240.023438 144.621094 236.765625 145.261719 236.765625 145.261719 L 241.378906 149.90625 C 241.378906 149.90625 242.390625 147.003906 241.210938 145.816406 " fill-opacity="1" fill-rule="nonzero"/><path fill="#d1470b" d="M 241.210938 145.816406 C 240.023438 144.621094 236.765625 145.261719 236.765625 145.261719 L 241.378906 149.90625 C 241.378906 149.90625 242.390625 147.003906 241.210938 145.816406 " fill-opacity="1" fill-rule="nonzero"/><g clip-path="url(#1db7902190)"><path fill="#d1470b" d="M 157.792969 236.40625 L 150.785156 229.347656 C 149.789062 228.347656 148.195312 228.347656 147.183594 229.347656 L 76.6875 300.269531 C 75.703125 301.273438 75.703125 302.886719 76.6875 303.886719 L 83.703125 310.949219 C 84.703125 311.945312 86.308594 311.945312 87.300781 310.949219 L 157.792969 240.023438 C 158.785156 239.023438 158.785156 237.410156 157.792969 236.40625 " fill-opacity="1" fill-rule="nonzero"/></g><g clip-path="url(#bc4c0ac56d)"><path fill="#d1470b" d="M 139.6875 112.070312 L 90.078125 72.003906 L 118.832031 105.515625 C 126.070312 112.804688 130.183594 120.476562 126.292969 124.398438 C 122.386719 128.316406 114.652344 124.292969 107.410156 117.003906 L 75.453125 86.699219 L 114.027344 137.878906 C 123.351562 147.265625 135.613281 150.488281 143.210938 146.097656 L 227.878906 231.410156 L 226.691406 232.609375 C 225.691406 233.613281 225.691406 235.226562 226.691406 236.226562 L 297.128906 307.207031 C 298.121094 308.203125 299.734375 308.203125 300.714844 307.207031 L 307.742188 300.148438 C 308.730469 299.152344 308.730469 297.539062 307.742188 296.539062 L 237.292969 225.5625 C 236.300781 224.558594 234.695312 224.5625 233.695312 225.558594 L 232.5 226.765625 L 147.828125 141.453125 C 152.203125 133.808594 149.007812 121.453125 139.6875 112.070312 " fill-opacity="1" fill-rule="nonzero"/></g></svg>