<svg xmlns="http://www.w3.org/2000/svg" xmlns:xlink="http://www.w3.org/1999/xlink" width="500" zoomAndPan="magnify" viewBox="0 0 375 374.999991" height="500" preserveAspectRatio="xMidYMid meet" version="1.0"><defs><clipPath id="b1070d0494"><path d="M 6.003906 243 L 135 243 L 135 372.289062 L 6.003906 372.289062 Z M 6.003906 243 " clip-rule="nonzero"/></clipPath><clipPath id="4e5d29c3ac"><path d="M 6.003906 2.539062 L 366 2.539062 L 366 367 L 6.003906 367 Z M 6.003906 2.539062 " clip-rule="nonzero"/></clipPath></defs><path fill="#ffffff" d="M 294.808594 129.515625 C 293.285156 131.050781 290.652344 130.894531 288.925781 129.164062 L 283.273438 123.476562 C 281.554688 121.738281 281.417969 119.089844 282.9375 117.550781 L 337.285156 62.878906 C 338.808594 61.339844 341.453125 61.5 343.164062 63.234375 L 348.8125 68.910156 C 350.535156 70.652344 350.695312 73.296875 349.164062 74.839844 Z M 277.597656 112.164062 C 276.070312 113.710938 273.445312 113.546875 271.71875 111.808594 L 266.066406 106.132812 C 264.328125 104.394531 264.175781 101.742188 265.71875 100.199219 L 320.0625 45.535156 C 321.582031 43.996094 324.230469 44.152344 325.9375 45.886719 L 331.589844 51.5625 C 333.3125 53.296875 333.453125 55.949219 331.941406 57.496094 Z M 259.769531 94.230469 C 258.246094 95.757812 255.597656 95.605469 253.878906 93.863281 L 248.246094 88.1875 C 246.53125 86.453125 246.363281 83.804688 247.902344 82.253906 L 302.25 27.589844 C 303.757812 26.054688 306.40625 26.203125 308.125 27.949219 L 313.773438 33.617188 C 315.496094 35.359375 315.640625 38.015625 314.128906 39.550781 Z M 367.484375 67.027344 L 310.015625 9.152344 C 308.484375 7.617188 306 7.609375 304.484375 9.152344 L 229.589844 84.503906 C 228.054688 86.039062 228.054688 88.539062 229.589844 90.074219 L 254.761719 115.429688 C 254.761719 115.429688 259.78125 114.445312 261.617188 116.285156 C 263.433594 118.117188 261.871094 122.59375 261.871094 122.59375 L 287.042969 147.945312 C 288.566406 149.480469 291.058594 149.488281 292.566406 147.945312 L 367.484375 72.59375 C 369.007812 71.058594 369.007812 68.566406 367.484375 67.027344 " fill-opacity="1" fill-rule="nonzero"/><path fill="#ffffff" d="M 254.761719 115.429688 L 124.046875 246.917969 L 131.167969 254.082031 L 261.871094 122.59375 L 254.761719 115.429688 " fill-opacity="1" fill-rule="nonzero"/><path fill="#ffffff" d="M 261.617188 116.285156 C 259.78125 114.445312 254.761719 115.429688 254.761719 115.429688 L 261.871094 122.59375 C 261.871094 122.59375 263.433594 118.117188 261.617188 116.285156 " fill-opacity="1" fill-rule="nonzero"/><path fill="#ffffff" d="M 261.617188 116.285156 C 259.78125 114.445312 254.761719 115.429688 254.761719 115.429688 L 261.871094 122.59375 C 261.871094 122.59375 263.433594 118.117188 261.617188 116.285156 " fill-opacity="1" fill-rule="nonzero"/><g clip-path="url(#b1070d0494)"><path fill="#ffffff" d="M 133.011719 255.9375 L 122.214844 245.058594 C 120.675781 243.519531 118.21875 243.519531 116.660156 245.058594 L 7.984375 354.394531 C 6.464844 355.9375 6.464844 358.429688 7.984375 359.96875 L 18.796875 370.859375 C 20.339844 372.390625 22.8125 372.390625 24.34375 370.859375 L 133.011719 261.515625 C 134.546875 259.972656 134.546875 257.484375 133.011719 255.9375 " fill-opacity="1" fill-rule="nonzero"/></g><g clip-path="url(#4e5d29c3ac)"><path fill="#ffffff" d="M 105.101562 64.261719 L 28.625 2.496094 L 72.953125 54.15625 C 84.113281 65.398438 90.457031 77.21875 84.453125 83.269531 C 78.433594 89.3125 66.511719 83.101562 55.347656 71.867188 L 6.082031 25.148438 L 65.546875 104.050781 C 79.917969 118.519531 98.824219 123.488281 110.535156 116.71875 L 241.0625 248.234375 L 239.230469 250.085938 C 237.6875 251.636719 237.6875 254.121094 239.230469 255.664062 L 347.820312 365.089844 C 349.34375 366.621094 351.835938 366.621094 353.347656 365.089844 L 364.179688 354.207031 C 365.699219 352.671875 365.699219 350.183594 364.179688 348.640625 L 255.574219 239.226562 C 254.042969 237.675781 251.570312 237.683594 250.03125 239.21875 L 248.1875 241.078125 L 117.65625 109.5625 C 124.398438 97.773438 119.472656 78.730469 105.101562 64.261719 " fill-opacity="1" fill-rule="nonzero"/></g></svg>